<mxfile host="app.diagrams.net" modified="2023-11-04T16:41:48.009Z" agent="Mozilla/5.0 (X11; Linux x86_64) AppleWebKit/537.36 (KHTML, like Gecko) Chrome/115.0.0.0 Safari/537.36" etag="QGQWXJTCnh4fKhbJz3OO" version="22.0.8" type="device">
  <diagram name="Page-1" id="W4VMJF9DQiVljbd_kkdL">
    <mxGraphModel dx="1509" dy="887" grid="1" gridSize="10" guides="1" tooltips="1" connect="1" arrows="1" fold="1" page="1" pageScale="1" pageWidth="850" pageHeight="1100" math="0" shadow="0">
      <root>
        <mxCell id="0" />
        <mxCell id="1" parent="0" />
        <mxCell id="CqY-KDAt6uPlR234NN6K-1" value="main-client: Login Form" style="swimlane;whiteSpace=wrap;html=1;" vertex="1" parent="1">
          <mxGeometry x="110" y="40" width="630" height="350" as="geometry">
            <mxRectangle x="110" y="30" width="180" height="30" as="alternateBounds" />
          </mxGeometry>
        </mxCell>
        <mxCell id="CqY-KDAt6uPlR234NN6K-2" value="testAccount" style="rounded=0;whiteSpace=wrap;html=1;align=left;" vertex="1" parent="CqY-KDAt6uPlR234NN6K-1">
          <mxGeometry x="200" y="170" width="230" height="20" as="geometry" />
        </mxCell>
        <mxCell id="CqY-KDAt6uPlR234NN6K-3" value="************" style="rounded=0;whiteSpace=wrap;html=1;align=left;" vertex="1" parent="CqY-KDAt6uPlR234NN6K-1">
          <mxGeometry x="200" y="221" width="230" height="20" as="geometry" />
        </mxCell>
        <mxCell id="CqY-KDAt6uPlR234NN6K-6" value="create account" style="rounded=0;whiteSpace=wrap;html=1;fontSize=9;" vertex="1" parent="CqY-KDAt6uPlR234NN6K-1">
          <mxGeometry x="220" y="290" width="70" height="20" as="geometry" />
        </mxCell>
        <mxCell id="CqY-KDAt6uPlR234NN6K-7" value="submit" style="rounded=0;whiteSpace=wrap;html=1;fillColor=#d5e8d4;strokeColor=#82b366;" vertex="1" parent="CqY-KDAt6uPlR234NN6K-1">
          <mxGeometry x="340" y="290" width="70" height="20" as="geometry" />
        </mxCell>
        <mxCell id="CqY-KDAt6uPlR234NN6K-11" value="save login" style="text;html=1;align=center;verticalAlign=middle;resizable=0;points=[];autosize=1;strokeColor=none;fillColor=none;" vertex="1" parent="CqY-KDAt6uPlR234NN6K-1">
          <mxGeometry x="190" y="245" width="80" height="30" as="geometry" />
        </mxCell>
        <mxCell id="CqY-KDAt6uPlR234NN6K-14" value="" style="verticalLabelPosition=bottom;verticalAlign=top;html=1;shadow=0;dashed=0;strokeWidth=1;shape=mxgraph.ios.iCheckIcon;fillColor=#e8878E;fillColor2=#BD1421;strokeColor=#ffffff;sketch=0;" vertex="1" parent="CqY-KDAt6uPlR234NN6K-1">
          <mxGeometry x="263" y="254.5" width="15" height="15" as="geometry" />
        </mxCell>
        <mxCell id="CqY-KDAt6uPlR234NN6K-15" value="Login" style="text;html=1;align=center;verticalAlign=middle;resizable=0;points=[];autosize=1;strokeColor=none;fillColor=none;fontSize=27;" vertex="1" parent="CqY-KDAt6uPlR234NN6K-1">
          <mxGeometry x="270" y="80" width="90" height="50" as="geometry" />
        </mxCell>
        <mxCell id="CqY-KDAt6uPlR234NN6K-16" value="" style="html=1;verticalLabelPosition=bottom;align=center;labelBackgroundColor=#ffffff;verticalAlign=top;strokeWidth=2;strokeColor=#0080F0;shadow=0;dashed=0;shape=mxgraph.ios7.icons.eye;" vertex="1" parent="CqY-KDAt6uPlR234NN6K-1">
          <mxGeometry x="394" y="222.95" width="30" height="14.1" as="geometry" />
        </mxCell>
        <mxCell id="CqY-KDAt6uPlR234NN6K-30" value="username:" style="text;html=1;align=center;verticalAlign=middle;resizable=0;points=[];autosize=1;strokeColor=none;fillColor=none;fontSize=10;" vertex="1" parent="CqY-KDAt6uPlR234NN6K-1">
          <mxGeometry x="193" y="140" width="70" height="30" as="geometry" />
        </mxCell>
        <mxCell id="CqY-KDAt6uPlR234NN6K-31" value="password:" style="text;html=1;align=center;verticalAlign=middle;resizable=0;points=[];autosize=1;strokeColor=none;fillColor=none;fontSize=10;" vertex="1" parent="CqY-KDAt6uPlR234NN6K-1">
          <mxGeometry x="190" y="195" width="70" height="30" as="geometry" />
        </mxCell>
        <mxCell id="CqY-KDAt6uPlR234NN6K-32" value="error: username exists" style="text;html=1;align=center;verticalAlign=middle;resizable=0;points=[];autosize=1;strokeColor=none;fillColor=none;fontSize=10;fontColor=#FF0F0F;" vertex="1" parent="CqY-KDAt6uPlR234NN6K-1">
          <mxGeometry x="318" y="140" width="120" height="30" as="geometry" />
        </mxCell>
        <mxCell id="CqY-KDAt6uPlR234NN6K-33" value="error: password is easy" style="text;html=1;align=center;verticalAlign=middle;resizable=0;points=[];autosize=1;strokeColor=none;fillColor=none;fontSize=10;fontColor=#FF0F0F;" vertex="1" parent="CqY-KDAt6uPlR234NN6K-1">
          <mxGeometry x="310" y="195" width="130" height="30" as="geometry" />
        </mxCell>
        <mxCell id="CqY-KDAt6uPlR234NN6K-322" value="" style="shape=image;html=1;verticalAlign=top;verticalLabelPosition=bottom;labelBackgroundColor=#ffffff;imageAspect=0;aspect=fixed;image=https://cdn3.iconfinder.com/data/icons/essential-rounded/64/Rounded-31-128.png" vertex="1" parent="CqY-KDAt6uPlR234NN6K-1">
          <mxGeometry x="285" y="31" width="60" height="60" as="geometry" />
        </mxCell>
        <mxCell id="CqY-KDAt6uPlR234NN6K-34" value="main-client: Register Form" style="swimlane;whiteSpace=wrap;html=1;" vertex="1" parent="1">
          <mxGeometry x="110" y="420" width="630" height="350" as="geometry">
            <mxRectangle x="110" y="30" width="180" height="30" as="alternateBounds" />
          </mxGeometry>
        </mxCell>
        <mxCell id="CqY-KDAt6uPlR234NN6K-35" value="account@gmail.com" style="rounded=0;whiteSpace=wrap;html=1;align=left;" vertex="1" parent="CqY-KDAt6uPlR234NN6K-34">
          <mxGeometry x="193" y="138" width="230" height="20" as="geometry" />
        </mxCell>
        <mxCell id="CqY-KDAt6uPlR234NN6K-37" value="&lt;font style=&quot;font-size: 10px;&quot;&gt;have account&lt;/font&gt;" style="rounded=0;whiteSpace=wrap;html=1;" vertex="1" parent="CqY-KDAt6uPlR234NN6K-34">
          <mxGeometry x="213" y="280" width="70" height="20" as="geometry" />
        </mxCell>
        <mxCell id="CqY-KDAt6uPlR234NN6K-38" value="submit" style="rounded=0;whiteSpace=wrap;html=1;fillColor=#d5e8d4;strokeColor=#82b366;" vertex="1" parent="CqY-KDAt6uPlR234NN6K-34">
          <mxGeometry x="333" y="280" width="70" height="20" as="geometry" />
        </mxCell>
        <mxCell id="CqY-KDAt6uPlR234NN6K-41" value="Register" style="text;html=1;align=center;verticalAlign=middle;resizable=0;points=[];autosize=1;strokeColor=none;fillColor=none;fontSize=27;" vertex="1" parent="CqY-KDAt6uPlR234NN6K-34">
          <mxGeometry x="248" y="59" width="120" height="50" as="geometry" />
        </mxCell>
        <mxCell id="CqY-KDAt6uPlR234NN6K-43" value="email:" style="text;html=1;align=center;verticalAlign=middle;resizable=0;points=[];autosize=1;strokeColor=none;fillColor=none;fontSize=10;" vertex="1" parent="CqY-KDAt6uPlR234NN6K-34">
          <mxGeometry x="193" y="109" width="50" height="30" as="geometry" />
        </mxCell>
        <mxCell id="CqY-KDAt6uPlR234NN6K-45" value="error: email exists" style="text;html=1;align=center;verticalAlign=middle;resizable=0;points=[];autosize=1;strokeColor=none;fillColor=none;fontSize=10;fontColor=#FF0F0F;" vertex="1" parent="CqY-KDAt6uPlR234NN6K-34">
          <mxGeometry x="328" y="109" width="100" height="30" as="geometry" />
        </mxCell>
        <mxCell id="CqY-KDAt6uPlR234NN6K-47" value="************" style="rounded=0;whiteSpace=wrap;html=1;align=left;" vertex="1" parent="CqY-KDAt6uPlR234NN6K-34">
          <mxGeometry x="193" y="232" width="230" height="20" as="geometry" />
        </mxCell>
        <mxCell id="CqY-KDAt6uPlR234NN6K-48" value="" style="html=1;verticalLabelPosition=bottom;align=center;labelBackgroundColor=#ffffff;verticalAlign=top;strokeWidth=2;strokeColor=#0080F0;shadow=0;dashed=0;shape=mxgraph.ios7.icons.eye;" vertex="1" parent="CqY-KDAt6uPlR234NN6K-34">
          <mxGeometry x="387" y="233.95000000000005" width="30" height="14.1" as="geometry" />
        </mxCell>
        <mxCell id="CqY-KDAt6uPlR234NN6K-49" value="password:" style="text;html=1;align=center;verticalAlign=middle;resizable=0;points=[];autosize=1;strokeColor=none;fillColor=none;fontSize=10;" vertex="1" parent="CqY-KDAt6uPlR234NN6K-34">
          <mxGeometry x="183" y="206" width="70" height="30" as="geometry" />
        </mxCell>
        <mxCell id="CqY-KDAt6uPlR234NN6K-50" value="error: password is easy" style="text;html=1;align=center;verticalAlign=middle;resizable=0;points=[];autosize=1;strokeColor=none;fillColor=none;fontSize=10;fontColor=#FF0F0F;" vertex="1" parent="CqY-KDAt6uPlR234NN6K-34">
          <mxGeometry x="303" y="206" width="130" height="30" as="geometry" />
        </mxCell>
        <mxCell id="CqY-KDAt6uPlR234NN6K-51" value="testUsernameAccount22" style="rounded=0;whiteSpace=wrap;html=1;align=left;" vertex="1" parent="CqY-KDAt6uPlR234NN6K-34">
          <mxGeometry x="193" y="186" width="230" height="20" as="geometry" />
        </mxCell>
        <mxCell id="CqY-KDAt6uPlR234NN6K-53" value="username:" style="text;html=1;align=center;verticalAlign=middle;resizable=0;points=[];autosize=1;strokeColor=none;fillColor=none;fontSize=10;" vertex="1" parent="CqY-KDAt6uPlR234NN6K-34">
          <mxGeometry x="183" y="160" width="70" height="30" as="geometry" />
        </mxCell>
        <mxCell id="CqY-KDAt6uPlR234NN6K-54" value="error username is exists" style="text;html=1;align=center;verticalAlign=middle;resizable=0;points=[];autosize=1;strokeColor=none;fillColor=none;fontSize=10;fontColor=#FF0F0F;" vertex="1" parent="CqY-KDAt6uPlR234NN6K-34">
          <mxGeometry x="303" y="160" width="130" height="30" as="geometry" />
        </mxCell>
        <mxCell id="CqY-KDAt6uPlR234NN6K-55" style="edgeStyle=orthogonalEdgeStyle;rounded=0;orthogonalLoop=1;jettySize=auto;html=1;fillColor=#dae8fc;strokeColor=#6c8ebf;" edge="1" parent="1" source="CqY-KDAt6uPlR234NN6K-6" target="CqY-KDAt6uPlR234NN6K-34">
          <mxGeometry relative="1" as="geometry" />
        </mxCell>
        <mxCell id="CqY-KDAt6uPlR234NN6K-56" style="edgeStyle=orthogonalEdgeStyle;rounded=0;orthogonalLoop=1;jettySize=auto;html=1;entryX=0.5;entryY=0;entryDx=0;entryDy=0;fillColor=#dae8fc;strokeColor=#6c8ebf;" edge="1" parent="1" source="CqY-KDAt6uPlR234NN6K-37" target="CqY-KDAt6uPlR234NN6K-1">
          <mxGeometry relative="1" as="geometry">
            <Array as="points">
              <mxPoint x="358" y="750" />
              <mxPoint x="90" y="750" />
              <mxPoint x="90" y="20" />
              <mxPoint x="425" y="20" />
            </Array>
          </mxGeometry>
        </mxCell>
        <mxCell id="CqY-KDAt6uPlR234NN6K-246" value="failed/longwait" style="edgeStyle=orthogonalEdgeStyle;rounded=0;orthogonalLoop=1;jettySize=auto;html=1;fillColor=#dae8fc;strokeColor=#6c8ebf;" edge="1" parent="1" source="CqY-KDAt6uPlR234NN6K-71" target="CqY-KDAt6uPlR234NN6K-237">
          <mxGeometry relative="1" as="geometry" />
        </mxCell>
        <mxCell id="CqY-KDAt6uPlR234NN6K-476" value="responsed error" style="edgeStyle=orthogonalEdgeStyle;rounded=0;orthogonalLoop=1;jettySize=auto;html=1;fillColor=#e1d5e7;strokeColor=#9673a6;" edge="1" parent="1" source="CqY-KDAt6uPlR234NN6K-71" target="CqY-KDAt6uPlR234NN6K-1">
          <mxGeometry relative="1" as="geometry">
            <Array as="points">
              <mxPoint x="790" y="170" />
              <mxPoint x="790" y="170" />
            </Array>
          </mxGeometry>
        </mxCell>
        <mxCell id="CqY-KDAt6uPlR234NN6K-71" value="main-client: Login/Register wait.." style="swimlane;whiteSpace=wrap;html=1;" vertex="1" parent="1">
          <mxGeometry x="949" y="150" width="630" height="350" as="geometry">
            <mxRectangle x="110" y="30" width="180" height="30" as="alternateBounds" />
          </mxGeometry>
        </mxCell>
        <mxCell id="CqY-KDAt6uPlR234NN6K-75" value="Login to %username%&lt;br&gt;Please wait..." style="text;html=1;align=center;verticalAlign=middle;resizable=0;points=[];autosize=1;strokeColor=none;fillColor=none;fontSize=27;" vertex="1" parent="CqY-KDAt6uPlR234NN6K-71">
          <mxGeometry x="165" y="90" width="300" height="80" as="geometry" />
        </mxCell>
        <mxCell id="CqY-KDAt6uPlR234NN6K-251" value="Creating account&lt;br&gt;Please wait..." style="text;html=1;align=center;verticalAlign=middle;resizable=0;points=[];autosize=1;strokeColor=none;fillColor=none;fontSize=27;" vertex="1" parent="CqY-KDAt6uPlR234NN6K-71">
          <mxGeometry x="200" y="210" width="230" height="80" as="geometry" />
        </mxCell>
        <mxCell id="CqY-KDAt6uPlR234NN6K-252" value="OR" style="text;html=1;align=center;verticalAlign=middle;resizable=0;points=[];autosize=1;strokeColor=none;fillColor=none;fontSize=27;" vertex="1" parent="CqY-KDAt6uPlR234NN6K-71">
          <mxGeometry x="280" y="170" width="60" height="50" as="geometry" />
        </mxCell>
        <mxCell id="CqY-KDAt6uPlR234NN6K-87" value="data" style="edgeStyle=orthogonalEdgeStyle;rounded=0;orthogonalLoop=1;jettySize=auto;html=1;fillColor=#dae8fc;strokeColor=#6c8ebf;" edge="1" parent="1" source="CqY-KDAt6uPlR234NN6K-7" target="CqY-KDAt6uPlR234NN6K-71">
          <mxGeometry relative="1" as="geometry">
            <Array as="points">
              <mxPoint x="770" y="340" />
              <mxPoint x="770" y="215" />
            </Array>
          </mxGeometry>
        </mxCell>
        <mxCell id="CqY-KDAt6uPlR234NN6K-88" style="edgeStyle=orthogonalEdgeStyle;rounded=0;orthogonalLoop=1;jettySize=auto;html=1;fillColor=#dae8fc;strokeColor=#6c8ebf;" edge="1" parent="1" source="CqY-KDAt6uPlR234NN6K-38" target="CqY-KDAt6uPlR234NN6K-71">
          <mxGeometry relative="1" as="geometry">
            <mxPoint x="950" y="605.0285714285715" as="targetPoint" />
            <Array as="points">
              <mxPoint x="770" y="710" />
              <mxPoint x="770" y="605" />
              <mxPoint x="910" y="605" />
              <mxPoint x="910" y="230" />
            </Array>
          </mxGeometry>
        </mxCell>
        <mxCell id="CqY-KDAt6uPlR234NN6K-237" value="main-client: Login/register dialog failed" style="swimlane;whiteSpace=wrap;html=1;" vertex="1" parent="1">
          <mxGeometry x="1850" y="270" width="630" height="350" as="geometry">
            <mxRectangle x="110" y="30" width="180" height="30" as="alternateBounds" />
          </mxGeometry>
        </mxCell>
        <mxCell id="CqY-KDAt6uPlR234NN6K-238" value="1.Connection problem&lt;br&gt;2.Server did not response for a while" style="text;html=1;align=center;verticalAlign=middle;resizable=0;points=[];autosize=1;strokeColor=none;fillColor=none;fontSize=27;" vertex="1" parent="CqY-KDAt6uPlR234NN6K-237">
          <mxGeometry x="85" y="100" width="460" height="80" as="geometry" />
        </mxCell>
        <mxCell id="CqY-KDAt6uPlR234NN6K-239" value="retry" style="rounded=0;whiteSpace=wrap;html=1;" vertex="1" parent="CqY-KDAt6uPlR234NN6K-237">
          <mxGeometry x="348" y="220" width="115" height="30" as="geometry" />
        </mxCell>
        <mxCell id="CqY-KDAt6uPlR234NN6K-240" value="quit" style="rounded=0;whiteSpace=wrap;html=1;fillColor=#f8cecc;strokeColor=#b85450;" vertex="1" parent="CqY-KDAt6uPlR234NN6K-237">
          <mxGeometry x="168" y="220" width="115" height="30" as="geometry" />
        </mxCell>
        <mxCell id="CqY-KDAt6uPlR234NN6K-253" value="retry" style="edgeStyle=orthogonalEdgeStyle;rounded=0;orthogonalLoop=1;jettySize=auto;html=1;fillColor=#e1d5e7;strokeColor=#9673a6;" edge="1" parent="1" source="CqY-KDAt6uPlR234NN6K-239">
          <mxGeometry relative="1" as="geometry">
            <mxPoint x="1579" y="260" as="targetPoint" />
            <Array as="points">
              <mxPoint x="2520" y="505" />
              <mxPoint x="2520" y="250" />
              <mxPoint x="1579" y="250" />
            </Array>
          </mxGeometry>
        </mxCell>
        <mxCell id="CqY-KDAt6uPlR234NN6K-254" value="main-client: main page" style="swimlane;whiteSpace=wrap;html=1;" vertex="1" parent="1">
          <mxGeometry x="949" y="570" width="641" height="450" as="geometry">
            <mxRectangle x="110" y="30" width="180" height="30" as="alternateBounds" />
          </mxGeometry>
        </mxCell>
        <mxCell id="CqY-KDAt6uPlR234NN6K-304" value="" style="html=1;shape=mxgraph.basic.isocube;isoAngle=15;fillColor=#b1ddf0;strokeColor=#10739e;" vertex="1" parent="CqY-KDAt6uPlR234NN6K-254">
          <mxGeometry x="228" y="185" width="100" height="100" as="geometry" />
        </mxCell>
        <mxCell id="CqY-KDAt6uPlR234NN6K-378" value="" style="html=1;verticalLabelPosition=bottom;align=center;labelBackgroundColor=#ffffff;verticalAlign=top;strokeWidth=2;strokeColor=#F70B0B;shadow=0;dashed=0;shape=mxgraph.ios7.icons.locked;fillColor=none;opacity=50;" vertex="1" parent="CqY-KDAt6uPlR234NN6K-254">
          <mxGeometry x="267.47999999999996" y="191.63" width="21.4" height="26.75" as="geometry" />
        </mxCell>
        <mxCell id="CqY-KDAt6uPlR234NN6K-258" value="create lobby" style="rounded=0;whiteSpace=wrap;html=1;" vertex="1" parent="CqY-KDAt6uPlR234NN6K-254">
          <mxGeometry x="504.33000000000004" y="35" width="110" height="25" as="geometry" />
        </mxCell>
        <mxCell id="CqY-KDAt6uPlR234NN6K-259" value="join" style="rounded=0;whiteSpace=wrap;html=1;fillColor=#d5e8d4;strokeColor=#82b366;" vertex="1" parent="CqY-KDAt6uPlR234NN6K-254">
          <mxGeometry x="191" y="35" width="39" height="20" as="geometry" />
        </mxCell>
        <mxCell id="CqY-KDAt6uPlR234NN6K-260" value="10326" style="rounded=0;whiteSpace=wrap;html=1;align=left;" vertex="1" parent="CqY-KDAt6uPlR234NN6K-254">
          <mxGeometry x="71" y="35" width="110" height="20" as="geometry" />
        </mxCell>
        <mxCell id="CqY-KDAt6uPlR234NN6K-261" value="lobby id" style="text;html=1;align=center;verticalAlign=middle;resizable=0;points=[];autosize=1;strokeColor=none;fillColor=none;fontSize=10;" vertex="1" parent="CqY-KDAt6uPlR234NN6K-254">
          <mxGeometry x="16" y="30" width="60" height="30" as="geometry" />
        </mxCell>
        <mxCell id="CqY-KDAt6uPlR234NN6K-262" value="not found" style="text;html=1;align=center;verticalAlign=middle;resizable=0;points=[];autosize=1;strokeColor=none;fillColor=none;fontSize=10;fontColor=#FF0F0F;" vertex="1" parent="CqY-KDAt6uPlR234NN6K-254">
          <mxGeometry x="121" y="30" width="70" height="30" as="geometry" />
        </mxCell>
        <mxCell id="CqY-KDAt6uPlR234NN6K-271" value="" style="rhombus;whiteSpace=wrap;html=1;" vertex="1" parent="CqY-KDAt6uPlR234NN6K-254">
          <mxGeometry x="1" y="163" width="80" height="80" as="geometry" />
        </mxCell>
        <mxCell id="CqY-KDAt6uPlR234NN6K-265" value="" style="rhombus;whiteSpace=wrap;html=1;fillColor=#f8cecc;strokeColor=#b85450;" vertex="1" parent="CqY-KDAt6uPlR234NN6K-254">
          <mxGeometry x="81" y="163" width="80" height="80" as="geometry" />
        </mxCell>
        <mxCell id="CqY-KDAt6uPlR234NN6K-273" value="" style="rhombus;whiteSpace=wrap;html=1;fillColor=#f8cecc;strokeColor=#b85450;gradientColor=#ea6b66;" vertex="1" parent="CqY-KDAt6uPlR234NN6K-254">
          <mxGeometry x="41" y="123" width="80" height="80" as="geometry" />
        </mxCell>
        <mxCell id="CqY-KDAt6uPlR234NN6K-274" value="" style="rhombus;whiteSpace=wrap;html=1;fillColor=#d5e8d4;strokeColor=#82b366;" vertex="1" parent="CqY-KDAt6uPlR234NN6K-254">
          <mxGeometry x="41" y="203" width="80" height="80" as="geometry" />
        </mxCell>
        <mxCell id="CqY-KDAt6uPlR234NN6K-278" value="" style="html=1;shape=mxgraph.basic.isocube;isoAngle=15;fillColor=#e1d5e7;strokeColor=#9673a6;" vertex="1" parent="CqY-KDAt6uPlR234NN6K-254">
          <mxGeometry x="326" y="181" width="100" height="100" as="geometry" />
        </mxCell>
        <mxCell id="CqY-KDAt6uPlR234NN6K-279" value="" style="html=1;shape=mxgraph.basic.isocube;isoAngle=15;fillColor=#fff2cc;strokeColor=#d6b656;" vertex="1" parent="CqY-KDAt6uPlR234NN6K-254">
          <mxGeometry x="330" y="81" width="100" height="100" as="geometry" />
        </mxCell>
        <mxCell id="CqY-KDAt6uPlR234NN6K-285" value="" style="rhombus;whiteSpace=wrap;html=1;" vertex="1" parent="CqY-KDAt6uPlR234NN6K-254">
          <mxGeometry x="41" y="283" width="80" height="80" as="geometry" />
        </mxCell>
        <mxCell id="CqY-KDAt6uPlR234NN6K-286" value="" style="rhombus;whiteSpace=wrap;html=1;" vertex="1" parent="CqY-KDAt6uPlR234NN6K-254">
          <mxGeometry x="121" y="205" width="80" height="80" as="geometry" />
        </mxCell>
        <mxCell id="CqY-KDAt6uPlR234NN6K-287" value="" style="rhombus;whiteSpace=wrap;html=1;fillColor=#e1d5e7;strokeColor=#9673a6;" vertex="1" parent="CqY-KDAt6uPlR234NN6K-254">
          <mxGeometry x="121" y="125" width="80" height="80" as="geometry" />
        </mxCell>
        <mxCell id="CqY-KDAt6uPlR234NN6K-289" value="" style="html=1;shape=mxgraph.basic.isocube;isoAngle=15;fillColor=#f8cecc;strokeColor=#b85450;gradientColor=#ea6b66;" vertex="1" parent="CqY-KDAt6uPlR234NN6K-254">
          <mxGeometry x="328" y="285" width="100" height="100" as="geometry" />
        </mxCell>
        <mxCell id="CqY-KDAt6uPlR234NN6K-292" value="" style="html=1;shape=mxgraph.basic.isocube;isoAngle=15;fillColor=#b0e3e6;strokeColor=#0e8088;" vertex="1" parent="CqY-KDAt6uPlR234NN6K-254">
          <mxGeometry x="228" y="81" width="100" height="100" as="geometry" />
        </mxCell>
        <mxCell id="CqY-KDAt6uPlR234NN6K-293" value="" style="rhombus;whiteSpace=wrap;html=1;fillColor=#e1d5e7;strokeColor=#9673a6;" vertex="1" parent="CqY-KDAt6uPlR234NN6K-254">
          <mxGeometry x="1" y="243" width="80" height="80" as="geometry" />
        </mxCell>
        <mxCell id="CqY-KDAt6uPlR234NN6K-294" value="" style="rhombus;whiteSpace=wrap;html=1;fillColor=#dae8fc;strokeColor=#6c8ebf;" vertex="1" parent="CqY-KDAt6uPlR234NN6K-254">
          <mxGeometry x="1" y="83" width="80" height="80" as="geometry" />
        </mxCell>
        <mxCell id="CqY-KDAt6uPlR234NN6K-295" value="" style="rhombus;whiteSpace=wrap;html=1;" vertex="1" parent="CqY-KDAt6uPlR234NN6K-254">
          <mxGeometry x="81" y="83" width="80" height="80" as="geometry" />
        </mxCell>
        <mxCell id="CqY-KDAt6uPlR234NN6K-296" value="" style="rhombus;whiteSpace=wrap;html=1;" vertex="1" parent="CqY-KDAt6uPlR234NN6K-254">
          <mxGeometry x="81" y="245" width="80" height="80" as="geometry" />
        </mxCell>
        <mxCell id="CqY-KDAt6uPlR234NN6K-297" value="" style="rhombus;whiteSpace=wrap;html=1;" vertex="1" parent="CqY-KDAt6uPlR234NN6K-254">
          <mxGeometry x="1" y="323" width="80" height="80" as="geometry" />
        </mxCell>
        <mxCell id="CqY-KDAt6uPlR234NN6K-298" value="" style="rhombus;whiteSpace=wrap;html=1;fillColor=#6d8764;fontColor=#ffffff;strokeColor=#3A5431;" vertex="1" parent="CqY-KDAt6uPlR234NN6K-254">
          <mxGeometry x="41" y="363" width="80" height="80" as="geometry" />
        </mxCell>
        <mxCell id="CqY-KDAt6uPlR234NN6K-299" value="" style="rhombus;whiteSpace=wrap;html=1;fillColor=#fa6800;fontColor=#000000;strokeColor=#C73500;" vertex="1" parent="CqY-KDAt6uPlR234NN6K-254">
          <mxGeometry x="81" y="325" width="80" height="80" as="geometry" />
        </mxCell>
        <mxCell id="CqY-KDAt6uPlR234NN6K-300" value="" style="rhombus;whiteSpace=wrap;html=1;" vertex="1" parent="CqY-KDAt6uPlR234NN6K-254">
          <mxGeometry x="121" y="285" width="80" height="80" as="geometry" />
        </mxCell>
        <mxCell id="CqY-KDAt6uPlR234NN6K-301" value="" style="rhombus;whiteSpace=wrap;html=1;fillColor=#1ba1e2;fontColor=#ffffff;strokeColor=#006EAF;" vertex="1" parent="CqY-KDAt6uPlR234NN6K-254">
          <mxGeometry x="121" y="365" width="80" height="80" as="geometry" />
        </mxCell>
        <mxCell id="CqY-KDAt6uPlR234NN6K-302" value="" style="rhombus;whiteSpace=wrap;html=1;" vertex="1" parent="CqY-KDAt6uPlR234NN6K-254">
          <mxGeometry x="161" y="325" width="80" height="80" as="geometry" />
        </mxCell>
        <mxCell id="CqY-KDAt6uPlR234NN6K-303" value="" style="rhombus;whiteSpace=wrap;html=1;fillColor=#ffe6cc;strokeColor=#d79b00;" vertex="1" parent="CqY-KDAt6uPlR234NN6K-254">
          <mxGeometry x="161" y="245" width="80" height="80" as="geometry" />
        </mxCell>
        <mxCell id="CqY-KDAt6uPlR234NN6K-306" value="" style="html=1;shape=mxgraph.basic.isocube;isoAngle=15;fillColor=#fad9d5;strokeColor=#ae4132;" vertex="1" parent="CqY-KDAt6uPlR234NN6K-254">
          <mxGeometry x="226" y="285" width="100" height="100" as="geometry" />
        </mxCell>
        <mxCell id="CqY-KDAt6uPlR234NN6K-320" value="refresh&lt;br&gt;lobby list" style="html=1;verticalLabelPosition=bottom;align=center;labelBackgroundColor=#ffffff;verticalAlign=top;strokeWidth=2;strokeColor=#0080F0;shadow=0;dashed=0;shape=mxgraph.ios7.icons.reload;" vertex="1" parent="CqY-KDAt6uPlR234NN6K-254">
          <mxGeometry x="601" y="83" width="13.33" height="15" as="geometry" />
        </mxCell>
        <mxCell id="CqY-KDAt6uPlR234NN6K-321" value="logout" style="html=1;verticalLabelPosition=bottom;align=center;labelBackgroundColor=#ffffff;verticalAlign=top;strokeWidth=2;strokeColor=#82b366;shadow=0;dashed=0;shape=mxgraph.ios7.icons.locked;fillColor=#d5e8d4;" vertex="1" parent="CqY-KDAt6uPlR234NN6K-254">
          <mxGeometry x="451" y="32.5" width="20" height="25" as="geometry" />
        </mxCell>
        <mxCell id="CqY-KDAt6uPlR234NN6K-324" value="" style="shape=actor;whiteSpace=wrap;html=1;" vertex="1" parent="CqY-KDAt6uPlR234NN6K-254">
          <mxGeometry x="77.67" y="207" width="6.67" height="10" as="geometry" />
        </mxCell>
        <mxCell id="CqY-KDAt6uPlR234NN6K-325" value="4/8" style="text;html=1;strokeColor=none;fillColor=none;align=center;verticalAlign=middle;whiteSpace=wrap;rounded=0;fontSize=6;" vertex="1" parent="CqY-KDAt6uPlR234NN6K-254">
          <mxGeometry x="73.16" y="217" width="15.67" height="10" as="geometry" />
        </mxCell>
        <mxCell id="CqY-KDAt6uPlR234NN6K-326" value="" style="html=1;verticalLabelPosition=bottom;align=center;labelBackgroundColor=#ffffff;verticalAlign=top;strokeWidth=2;shadow=0;dashed=0;shape=mxgraph.ios7.icons.microphone;" vertex="1" parent="CqY-KDAt6uPlR234NN6K-254">
          <mxGeometry x="48" y="238" width="4" height="10" as="geometry" />
        </mxCell>
        <mxCell id="CqY-KDAt6uPlR234NN6K-327" value="" style="html=1;verticalLabelPosition=bottom;align=center;labelBackgroundColor=#ffffff;verticalAlign=top;strokeWidth=2;shadow=0;dashed=0;shape=mxgraph.ios7.icons.chat;" vertex="1" parent="CqY-KDAt6uPlR234NN6K-254">
          <mxGeometry x="102.75" y="238" width="12.33" height="7" as="geometry" />
        </mxCell>
        <mxCell id="CqY-KDAt6uPlR234NN6K-331" value="" style="shape=image;html=1;verticalAlign=top;verticalLabelPosition=bottom;labelBackgroundColor=#ffffff;imageAspect=0;aspect=fixed;image=https://cdn0.iconfinder.com/data/icons/pokemon-go-vol-2/135/_pikachu-128.png" vertex="1" parent="CqY-KDAt6uPlR234NN6K-254">
          <mxGeometry x="62.76" y="226.75" width="36.5" height="36.5" as="geometry" />
        </mxCell>
        <mxCell id="CqY-KDAt6uPlR234NN6K-333" value="" style="shape=image;html=1;verticalAlign=top;verticalLabelPosition=bottom;labelBackgroundColor=#ffffff;imageAspect=0;aspect=fixed;image=https://cdn4.iconfinder.com/data/icons/evil-icons-user-interface/64/eye-128.png;imageBackground=none;imageBorder=none;" vertex="1" parent="CqY-KDAt6uPlR234NN6K-254">
          <mxGeometry x="56" y="221" width="15" height="15" as="geometry" />
        </mxCell>
        <mxCell id="CqY-KDAt6uPlR234NN6K-334" value="in-game" style="text;html=1;strokeColor=none;fillColor=none;align=center;verticalAlign=middle;whiteSpace=wrap;rounded=0;fontSize=4;" vertex="1" parent="CqY-KDAt6uPlR234NN6K-254">
          <mxGeometry x="69.69" y="270" width="22.63" height="1" as="geometry" />
        </mxCell>
        <mxCell id="CqY-KDAt6uPlR234NN6K-335" value="" style="shape=actor;whiteSpace=wrap;html=1;" vertex="1" parent="CqY-KDAt6uPlR234NN6K-254">
          <mxGeometry x="157.1300000000001" y="128" width="6.67" height="10" as="geometry" />
        </mxCell>
        <mxCell id="CqY-KDAt6uPlR234NN6K-336" value="2/3" style="text;html=1;strokeColor=none;fillColor=none;align=center;verticalAlign=middle;whiteSpace=wrap;rounded=0;fontSize=6;" vertex="1" parent="CqY-KDAt6uPlR234NN6K-254">
          <mxGeometry x="152.6199999999999" y="138" width="15.67" height="10" as="geometry" />
        </mxCell>
        <mxCell id="CqY-KDAt6uPlR234NN6K-337" value="" style="html=1;verticalLabelPosition=bottom;align=center;labelBackgroundColor=#ffffff;verticalAlign=top;strokeWidth=2;shadow=0;dashed=0;shape=mxgraph.ios7.icons.microphone;fillColor=#f8cecc;strokeColor=#b85450;" vertex="1" parent="CqY-KDAt6uPlR234NN6K-254">
          <mxGeometry x="127.46000000000004" y="159" width="4" height="10" as="geometry" />
        </mxCell>
        <mxCell id="CqY-KDAt6uPlR234NN6K-338" value="" style="html=1;verticalLabelPosition=bottom;align=center;labelBackgroundColor=#ffffff;verticalAlign=top;strokeWidth=2;shadow=0;dashed=0;shape=mxgraph.ios7.icons.chat;" vertex="1" parent="CqY-KDAt6uPlR234NN6K-254">
          <mxGeometry x="182.21000000000004" y="159" width="12.33" height="7" as="geometry" />
        </mxCell>
        <mxCell id="CqY-KDAt6uPlR234NN6K-340" value="" style="shape=image;html=1;verticalAlign=top;verticalLabelPosition=bottom;labelBackgroundColor=#ffffff;imageAspect=0;aspect=fixed;image=https://cdn4.iconfinder.com/data/icons/evil-icons-user-interface/64/eye-128.png;imageBackground=none;imageBorder=none;" vertex="1" parent="CqY-KDAt6uPlR234NN6K-254">
          <mxGeometry x="135.46000000000004" y="142" width="15" height="15" as="geometry" />
        </mxCell>
        <mxCell id="CqY-KDAt6uPlR234NN6K-341" value="in-lobby" style="text;html=1;strokeColor=none;fillColor=none;align=center;verticalAlign=middle;whiteSpace=wrap;rounded=0;fontSize=4;" vertex="1" parent="CqY-KDAt6uPlR234NN6K-254">
          <mxGeometry x="149.1500000000001" y="191" width="22.63" height="1" as="geometry" />
        </mxCell>
        <mxCell id="CqY-KDAt6uPlR234NN6K-342" value="" style="shape=actor;whiteSpace=wrap;html=1;" vertex="1" parent="CqY-KDAt6uPlR234NN6K-254">
          <mxGeometry x="197.1300000000001" y="248" width="6.67" height="10" as="geometry" />
        </mxCell>
        <mxCell id="CqY-KDAt6uPlR234NN6K-343" value="10/10" style="text;html=1;strokeColor=none;fillColor=none;align=center;verticalAlign=middle;whiteSpace=wrap;rounded=0;fontSize=6;fontColor=#FF1B0A;" vertex="1" parent="CqY-KDAt6uPlR234NN6K-254">
          <mxGeometry x="192.6199999999999" y="258" width="15.67" height="10" as="geometry" />
        </mxCell>
        <mxCell id="CqY-KDAt6uPlR234NN6K-344" value="" style="html=1;verticalLabelPosition=bottom;align=center;labelBackgroundColor=#ffffff;verticalAlign=top;strokeWidth=2;shadow=0;dashed=0;shape=mxgraph.ios7.icons.microphone;fillColor=#f8cecc;strokeColor=#b85450;" vertex="1" parent="CqY-KDAt6uPlR234NN6K-254">
          <mxGeometry x="167.46000000000004" y="279" width="4" height="10" as="geometry" />
        </mxCell>
        <mxCell id="CqY-KDAt6uPlR234NN6K-345" value="" style="html=1;verticalLabelPosition=bottom;align=center;labelBackgroundColor=#ffffff;verticalAlign=top;strokeWidth=2;shadow=0;dashed=0;shape=mxgraph.ios7.icons.chat;fillColor=#f8cecc;strokeColor=#b85450;" vertex="1" parent="CqY-KDAt6uPlR234NN6K-254">
          <mxGeometry x="222.21000000000004" y="279" width="12.33" height="7" as="geometry" />
        </mxCell>
        <mxCell id="CqY-KDAt6uPlR234NN6K-347" value="" style="shape=image;html=1;verticalAlign=top;verticalLabelPosition=bottom;labelBackgroundColor=#ffffff;imageAspect=0;aspect=fixed;image=https://cdn4.iconfinder.com/data/icons/evil-icons-user-interface/64/eye-128.png;imageBackground=none;imageBorder=none;" vertex="1" parent="CqY-KDAt6uPlR234NN6K-254">
          <mxGeometry x="175.46000000000004" y="262" width="15" height="15" as="geometry" />
        </mxCell>
        <mxCell id="CqY-KDAt6uPlR234NN6K-348" value="in-game" style="text;html=1;strokeColor=none;fillColor=none;align=center;verticalAlign=middle;whiteSpace=wrap;rounded=0;fontSize=4;" vertex="1" parent="CqY-KDAt6uPlR234NN6K-254">
          <mxGeometry x="189.1500000000001" y="311" width="22.63" height="1" as="geometry" />
        </mxCell>
        <mxCell id="CqY-KDAt6uPlR234NN6K-349" value="" style="shape=image;html=1;verticalAlign=top;verticalLabelPosition=bottom;labelBackgroundColor=#ffffff;imageAspect=0;aspect=fixed;image=https://cdn0.iconfinder.com/data/icons/pokemon-go-vol-2/135/_snorlax-128.png" vertex="1" parent="CqY-KDAt6uPlR234NN6K-254">
          <mxGeometry x="185" y="271" width="32" height="32" as="geometry" />
        </mxCell>
        <mxCell id="CqY-KDAt6uPlR234NN6K-351" value="" style="shape=actor;whiteSpace=wrap;html=1;" vertex="1" parent="CqY-KDAt6uPlR234NN6K-254">
          <mxGeometry x="77.67000000000007" y="287" width="6.67" height="10" as="geometry" />
        </mxCell>
        <mxCell id="CqY-KDAt6uPlR234NN6K-353" value="" style="html=1;verticalLabelPosition=bottom;align=center;labelBackgroundColor=#ffffff;verticalAlign=top;strokeWidth=2;shadow=0;dashed=0;shape=mxgraph.ios7.icons.microphone;" vertex="1" parent="CqY-KDAt6uPlR234NN6K-254">
          <mxGeometry x="48" y="318" width="4" height="10" as="geometry" />
        </mxCell>
        <mxCell id="CqY-KDAt6uPlR234NN6K-354" value="" style="html=1;verticalLabelPosition=bottom;align=center;labelBackgroundColor=#ffffff;verticalAlign=top;strokeWidth=2;shadow=0;dashed=0;shape=mxgraph.ios7.icons.chat;fillColor=#f8cecc;strokeColor=#b85450;" vertex="1" parent="CqY-KDAt6uPlR234NN6K-254">
          <mxGeometry x="102.75" y="318" width="12.33" height="7" as="geometry" />
        </mxCell>
        <mxCell id="CqY-KDAt6uPlR234NN6K-355" value="" style="shape=image;html=1;verticalAlign=top;verticalLabelPosition=bottom;labelBackgroundColor=#ffffff;imageAspect=0;aspect=fixed;image=https://cdn4.iconfinder.com/data/icons/evil-icons-user-interface/64/eye-128.png;imageBackground=none;imageBorder=none;" vertex="1" parent="CqY-KDAt6uPlR234NN6K-254">
          <mxGeometry x="56" y="301" width="15" height="15" as="geometry" />
        </mxCell>
        <mxCell id="CqY-KDAt6uPlR234NN6K-356" value="in-lobby" style="text;html=1;strokeColor=none;fillColor=none;align=center;verticalAlign=middle;whiteSpace=wrap;rounded=0;fontSize=4;" vertex="1" parent="CqY-KDAt6uPlR234NN6K-254">
          <mxGeometry x="69.69000000000005" y="350" width="22.63" height="1" as="geometry" />
        </mxCell>
        <mxCell id="CqY-KDAt6uPlR234NN6K-357" value="" style="shape=image;html=1;verticalAlign=top;verticalLabelPosition=bottom;labelBackgroundColor=#ffffff;imageAspect=0;aspect=fixed;image=https://cdn0.iconfinder.com/data/icons/pokemon-go-vol-2/135/_snorlax-128.png" vertex="1" parent="CqY-KDAt6uPlR234NN6K-254">
          <mxGeometry x="65.53999999999996" y="310" width="32" height="32" as="geometry" />
        </mxCell>
        <mxCell id="CqY-KDAt6uPlR234NN6K-358" value="4/4" style="text;html=1;strokeColor=none;fillColor=none;align=center;verticalAlign=middle;whiteSpace=wrap;rounded=0;fontSize=6;" vertex="1" parent="CqY-KDAt6uPlR234NN6K-254">
          <mxGeometry x="73.1599999999998" y="297" width="15.67" height="10" as="geometry" />
        </mxCell>
        <mxCell id="CqY-KDAt6uPlR234NN6K-359" value="" style="html=1;verticalLabelPosition=bottom;align=center;labelBackgroundColor=#ffffff;verticalAlign=top;strokeWidth=2;strokeColor=#F70B0B;shadow=0;dashed=0;shape=mxgraph.ios7.icons.locked;fillColor=none;opacity=50;" vertex="1" parent="CqY-KDAt6uPlR234NN6K-254">
          <mxGeometry x="68.61" y="307.5" width="24.8" height="31" as="geometry" />
        </mxCell>
        <mxCell id="CqY-KDAt6uPlR234NN6K-360" value="" style="shape=image;html=1;verticalAlign=top;verticalLabelPosition=bottom;labelBackgroundColor=#ffffff;imageAspect=0;aspect=fixed;image=https://cdn0.iconfinder.com/data/icons/pokemon-go-vol-2/135/_Pokeball-128.png" vertex="1" parent="CqY-KDAt6uPlR234NN6K-254">
          <mxGeometry x="146.46" y="151" width="28" height="28" as="geometry" />
        </mxCell>
        <mxCell id="CqY-KDAt6uPlR234NN6K-363" value="" style="sketch=0;outlineConnect=0;fontColor=#232F3E;gradientColor=none;fillColor=#8C4FFF;strokeColor=none;dashed=0;verticalLabelPosition=bottom;verticalAlign=top;align=center;html=1;fontSize=12;fontStyle=0;aspect=fixed;pointerEvents=1;shape=mxgraph.aws4.vpn_gateway;" vertex="1" parent="CqY-KDAt6uPlR234NN6K-254">
          <mxGeometry x="144" y="385" width="34" height="34" as="geometry" />
        </mxCell>
        <mxCell id="CqY-KDAt6uPlR234NN6K-365" value="" style="sketch=0;outlineConnect=0;fontColor=#232F3E;gradientColor=none;fillColor=#8C4FFF;strokeColor=none;dashed=0;verticalLabelPosition=bottom;verticalAlign=top;align=center;html=1;fontSize=12;fontStyle=0;aspect=fixed;pointerEvents=1;shape=mxgraph.aws4.vpn_gateway;" vertex="1" parent="CqY-KDAt6uPlR234NN6K-254">
          <mxGeometry x="62.75999999999999" y="145" width="34" height="34" as="geometry" />
        </mxCell>
        <mxCell id="CqY-KDAt6uPlR234NN6K-367" value="" style="sketch=0;outlineConnect=0;fontColor=#232F3E;gradientColor=none;fillColor=#8C4FFF;strokeColor=none;dashed=0;verticalLabelPosition=bottom;verticalAlign=top;align=center;html=1;fontSize=12;fontStyle=0;aspect=fixed;pointerEvents=1;shape=mxgraph.aws4.vpn_gateway;" vertex="1" parent="CqY-KDAt6uPlR234NN6K-254">
          <mxGeometry x="386" y="226" width="34" height="34" as="geometry" />
        </mxCell>
        <mxCell id="CqY-KDAt6uPlR234NN6K-370" value="" style="shape=actor;whiteSpace=wrap;html=1;" vertex="1" parent="CqY-KDAt6uPlR234NN6K-254">
          <mxGeometry x="282.21000000000004" y="260" width="6.67" height="10" as="geometry" />
        </mxCell>
        <mxCell id="CqY-KDAt6uPlR234NN6K-371" value="4/8" style="text;html=1;strokeColor=none;fillColor=none;align=center;verticalAlign=middle;whiteSpace=wrap;rounded=0;fontSize=6;" vertex="1" parent="CqY-KDAt6uPlR234NN6K-254">
          <mxGeometry x="277.6999999999998" y="270" width="15.67" height="10" as="geometry" />
        </mxCell>
        <mxCell id="CqY-KDAt6uPlR234NN6K-372" value="" style="html=1;verticalLabelPosition=bottom;align=center;labelBackgroundColor=#ffffff;verticalAlign=top;strokeWidth=2;shadow=0;dashed=0;shape=mxgraph.ios7.icons.microphone;" vertex="1" parent="CqY-KDAt6uPlR234NN6K-254">
          <mxGeometry x="285.79999999999995" y="235" width="4" height="10" as="geometry" />
        </mxCell>
        <mxCell id="CqY-KDAt6uPlR234NN6K-373" value="" style="html=1;verticalLabelPosition=bottom;align=center;labelBackgroundColor=#ffffff;verticalAlign=top;strokeWidth=2;shadow=0;dashed=0;shape=mxgraph.ios7.icons.chat;" vertex="1" parent="CqY-KDAt6uPlR234NN6K-254">
          <mxGeometry x="311.99999999999994" y="221.5" width="12.33" height="7" as="geometry" />
        </mxCell>
        <mxCell id="CqY-KDAt6uPlR234NN6K-374" value="" style="shape=image;html=1;verticalAlign=top;verticalLabelPosition=bottom;labelBackgroundColor=#ffffff;imageAspect=0;aspect=fixed;image=https://cdn0.iconfinder.com/data/icons/pokemon-go-vol-2/135/_pikachu-128.png" vertex="1" parent="CqY-KDAt6uPlR234NN6K-254">
          <mxGeometry x="234.53999999999996" y="227" width="36.5" height="36.5" as="geometry" />
        </mxCell>
        <mxCell id="CqY-KDAt6uPlR234NN6K-375" value="" style="shape=image;html=1;verticalAlign=top;verticalLabelPosition=bottom;labelBackgroundColor=#ffffff;imageAspect=0;aspect=fixed;image=https://cdn4.iconfinder.com/data/icons/evil-icons-user-interface/64/eye-128.png;imageBackground=none;imageBorder=none;" vertex="1" parent="CqY-KDAt6uPlR234NN6K-254">
          <mxGeometry x="293.36999999999995" y="224.5" width="15" height="15" as="geometry" />
        </mxCell>
        <mxCell id="CqY-KDAt6uPlR234NN6K-376" value="GuessPO" style="text;html=1;strokeColor=none;fillColor=none;align=center;verticalAlign=middle;whiteSpace=wrap;rounded=0;fontSize=4;" vertex="1" parent="CqY-KDAt6uPlR234NN6K-254">
          <mxGeometry x="241" y="263.5" width="22.63" height="1" as="geometry" />
        </mxCell>
        <mxCell id="CqY-KDAt6uPlR234NN6K-377" value="in-game" style="text;html=1;strokeColor=none;fillColor=none;align=center;verticalAlign=middle;whiteSpace=wrap;rounded=0;fontSize=4;" vertex="1" parent="CqY-KDAt6uPlR234NN6K-254">
          <mxGeometry x="293.37" y="259" width="22.63" height="1" as="geometry" />
        </mxCell>
        <mxCell id="CqY-KDAt6uPlR234NN6K-385" value="" style="sketch=0;outlineConnect=0;fontColor=#232F3E;gradientColor=none;fillColor=#8C4FFF;strokeColor=none;dashed=0;verticalLabelPosition=bottom;verticalAlign=top;align=center;html=1;fontSize=12;fontStyle=0;aspect=fixed;pointerEvents=1;shape=mxgraph.aws4.vpn_gateway;" vertex="1" parent="CqY-KDAt6uPlR234NN6K-254">
          <mxGeometry x="64.53999999999996" y="388" width="34" height="34" as="geometry" />
        </mxCell>
        <mxCell id="CqY-KDAt6uPlR234NN6K-386" value="" style="sketch=0;outlineConnect=0;fontColor=#232F3E;gradientColor=none;fillColor=#8C4FFF;strokeColor=none;dashed=0;verticalLabelPosition=bottom;verticalAlign=top;align=center;html=1;fontSize=12;fontStyle=0;aspect=fixed;pointerEvents=1;shape=mxgraph.aws4.vpn_gateway;" vertex="1" parent="CqY-KDAt6uPlR234NN6K-254">
          <mxGeometry x="104" y="351" width="34" height="34" as="geometry" />
        </mxCell>
        <mxCell id="CqY-KDAt6uPlR234NN6K-387" value="" style="sketch=0;outlineConnect=0;fontColor=#232F3E;gradientColor=none;fillColor=#8C4FFF;strokeColor=none;dashed=0;verticalLabelPosition=bottom;verticalAlign=top;align=center;html=1;fontSize=12;fontStyle=0;aspect=fixed;pointerEvents=1;shape=mxgraph.aws4.vpn_gateway;" vertex="1" parent="CqY-KDAt6uPlR234NN6K-254">
          <mxGeometry x="24" y="266" width="34" height="34" as="geometry" />
        </mxCell>
        <mxCell id="CqY-KDAt6uPlR234NN6K-388" value="" style="sketch=0;outlineConnect=0;fontColor=#232F3E;gradientColor=none;fillColor=#8C4FFF;strokeColor=none;dashed=0;verticalLabelPosition=bottom;verticalAlign=top;align=center;html=1;fontSize=12;fontStyle=0;aspect=fixed;pointerEvents=1;shape=mxgraph.aws4.vpn_gateway;" vertex="1" parent="CqY-KDAt6uPlR234NN6K-254">
          <mxGeometry x="24" y="104" width="34" height="34" as="geometry" />
        </mxCell>
        <mxCell id="CqY-KDAt6uPlR234NN6K-263" value="" style="endArrow=none;html=1;rounded=0;" edge="1" parent="1">
          <mxGeometry width="50" height="50" relative="1" as="geometry">
            <mxPoint x="950" y="650" as="sourcePoint" />
            <mxPoint x="1570" y="650" as="targetPoint" />
          </mxGeometry>
        </mxCell>
        <mxCell id="CqY-KDAt6uPlR234NN6K-307" value="" style="html=1;shape=mxgraph.basic.isocube;isoAngle=15;fillColor=#e1d5e7;strokeColor=#9673a6;" vertex="1" parent="1">
          <mxGeometry x="1480" y="730" width="100" height="100" as="geometry" />
        </mxCell>
        <mxCell id="CqY-KDAt6uPlR234NN6K-312" value="" style="html=1;shape=mxgraph.basic.isocube;isoAngle=15;fillColor=#b0e3e6;strokeColor=#0e8088;" vertex="1" parent="1">
          <mxGeometry x="1430" y="807" width="100" height="100" as="geometry" />
        </mxCell>
        <mxCell id="CqY-KDAt6uPlR234NN6K-313" value="" style="html=1;shape=mxgraph.basic.isocube;isoAngle=15;fillColor=#76608a;fontColor=#ffffff;strokeColor=#432D57;" vertex="1" parent="1">
          <mxGeometry x="1380" y="730" width="100" height="100" as="geometry" />
        </mxCell>
        <mxCell id="CqY-KDAt6uPlR234NN6K-314" value="" style="html=1;shape=mxgraph.basic.isocube;isoAngle=15;fillColor=#b1ddf0;strokeColor=#10739e;" vertex="1" parent="1">
          <mxGeometry x="1383" y="883" width="100" height="100" as="geometry" />
        </mxCell>
        <mxCell id="CqY-KDAt6uPlR234NN6K-315" value="" style="html=1;shape=mxgraph.basic.isocube;isoAngle=15;fillColor=#b1ddf0;strokeColor=#10739e;" vertex="1" parent="1">
          <mxGeometry x="1430" y="650" width="100" height="100" as="geometry" />
        </mxCell>
        <mxCell id="CqY-KDAt6uPlR234NN6K-498" value="join this lobby&lt;br&gt;(selected from&amp;nbsp;&lt;br&gt;lobby list)" style="edgeStyle=orthogonalEdgeStyle;rounded=0;orthogonalLoop=1;jettySize=auto;html=1;fillColor=#dae8fc;strokeColor=#6c8ebf;strokeWidth=4;" edge="1" parent="1" source="CqY-KDAt6uPlR234NN6K-317" target="CqY-KDAt6uPlR234NN6K-488">
          <mxGeometry x="-0.3656" relative="1" as="geometry">
            <Array as="points">
              <mxPoint x="1770" y="929" />
              <mxPoint x="1770" y="1600" />
            </Array>
            <mxPoint as="offset" />
          </mxGeometry>
        </mxCell>
        <mxCell id="CqY-KDAt6uPlR234NN6K-317" value="" style="html=1;shape=mxgraph.basic.isocube;isoAngle=15;fillColor=#e51400;fontColor=#ffffff;strokeColor=#B20000;" vertex="1" parent="1">
          <mxGeometry x="1483" y="879" width="100" height="100" as="geometry" />
        </mxCell>
        <mxCell id="CqY-KDAt6uPlR234NN6K-380" value="main-client: lobby form" style="swimlane;whiteSpace=wrap;html=1;" vertex="1" parent="1">
          <mxGeometry x="953" y="1150" width="630" height="370" as="geometry">
            <mxRectangle x="110" y="30" width="180" height="30" as="alternateBounds" />
          </mxGeometry>
        </mxCell>
        <mxCell id="CqY-KDAt6uPlR234NN6K-390" value="***********" style="rounded=0;whiteSpace=wrap;html=1;align=left;" vertex="1" parent="CqY-KDAt6uPlR234NN6K-380">
          <mxGeometry x="204.28999999999996" y="115" width="230" height="20" as="geometry" />
        </mxCell>
        <mxCell id="CqY-KDAt6uPlR234NN6K-391" value="password (optional):" style="text;html=1;align=center;verticalAlign=middle;resizable=0;points=[];autosize=1;strokeColor=none;fillColor=none;fontSize=10;" vertex="1" parent="CqY-KDAt6uPlR234NN6K-380">
          <mxGeometry x="193.99999999999997" y="86" width="110" height="30" as="geometry" />
        </mxCell>
        <mxCell id="CqY-KDAt6uPlR234NN6K-392" value="error: easy password" style="text;html=1;align=center;verticalAlign=middle;resizable=0;points=[];autosize=1;strokeColor=none;fillColor=none;fontSize=10;fontColor=#FF0F0F;" vertex="1" parent="CqY-KDAt6uPlR234NN6K-380">
          <mxGeometry x="329.28999999999996" y="86" width="120" height="30" as="geometry" />
        </mxCell>
        <mxCell id="CqY-KDAt6uPlR234NN6K-394" value="Create Lobby" style="text;html=1;align=center;verticalAlign=middle;resizable=0;points=[];autosize=1;strokeColor=none;fillColor=none;fontSize=27;" vertex="1" parent="CqY-KDAt6uPlR234NN6K-380">
          <mxGeometry x="217" y="36" width="190" height="50" as="geometry" />
        </mxCell>
        <mxCell id="CqY-KDAt6uPlR234NN6K-395" value="" style="html=1;verticalLabelPosition=bottom;align=center;labelBackgroundColor=#ffffff;verticalAlign=top;strokeWidth=2;strokeColor=#0080F0;shadow=0;dashed=0;shape=mxgraph.ios7.icons.eye;" vertex="1" parent="CqY-KDAt6uPlR234NN6K-380">
          <mxGeometry x="401.28999999999996" y="117.95000000000005" width="30" height="14.1" as="geometry" />
        </mxCell>
        <mxCell id="CqY-KDAt6uPlR234NN6K-399" value="" style="shape=actor;whiteSpace=wrap;html=1;" vertex="1" parent="CqY-KDAt6uPlR234NN6K-380">
          <mxGeometry x="210.29" y="208" width="13.33" height="20" as="geometry" />
        </mxCell>
        <mxCell id="CqY-KDAt6uPlR234NN6K-402" value="" style="endArrow=classic;html=1;rounded=0;" edge="1" parent="CqY-KDAt6uPlR234NN6K-380">
          <mxGeometry width="50" height="50" relative="1" as="geometry">
            <mxPoint x="313" y="221" as="sourcePoint" />
            <mxPoint x="313" y="231" as="targetPoint" />
          </mxGeometry>
        </mxCell>
        <mxCell id="CqY-KDAt6uPlR234NN6K-403" value="max players:" style="text;html=1;align=center;verticalAlign=middle;resizable=0;points=[];autosize=1;strokeColor=none;fillColor=none;fontSize=10;" vertex="1" parent="CqY-KDAt6uPlR234NN6K-380">
          <mxGeometry x="217" y="202" width="80" height="30" as="geometry" />
        </mxCell>
        <mxCell id="CqY-KDAt6uPlR234NN6K-407" value="10" style="text;html=1;strokeColor=none;fillColor=none;align=center;verticalAlign=middle;whiteSpace=wrap;rounded=0;" vertex="1" parent="CqY-KDAt6uPlR234NN6K-380">
          <mxGeometry x="281" y="213" width="30" height="10" as="geometry" />
        </mxCell>
        <mxCell id="CqY-KDAt6uPlR234NN6K-409" value="" style="html=1;verticalLabelPosition=bottom;align=center;labelBackgroundColor=#ffffff;verticalAlign=top;strokeWidth=2;shadow=0;dashed=0;shape=mxgraph.ios7.icons.microphone;" vertex="1" parent="CqY-KDAt6uPlR234NN6K-380">
          <mxGeometry x="211" y="274" width="7.2" height="18" as="geometry" />
        </mxCell>
        <mxCell id="CqY-KDAt6uPlR234NN6K-410" value="" style="html=1;verticalLabelPosition=bottom;align=center;labelBackgroundColor=#ffffff;verticalAlign=top;strokeWidth=2;shadow=0;dashed=0;shape=mxgraph.ios7.icons.chat;" vertex="1" parent="CqY-KDAt6uPlR234NN6K-380">
          <mxGeometry x="198.6" y="306" width="28.19" height="14" as="geometry" />
        </mxCell>
        <mxCell id="CqY-KDAt6uPlR234NN6K-411" value="" style="shape=image;html=1;verticalAlign=top;verticalLabelPosition=bottom;labelBackgroundColor=#ffffff;imageAspect=0;aspect=fixed;image=https://cdn4.iconfinder.com/data/icons/evil-icons-user-interface/64/eye-128.png;imageBackground=none;imageBorder=none;" vertex="1" parent="CqY-KDAt6uPlR234NN6K-380">
          <mxGeometry x="201.79" y="245" width="25" height="25" as="geometry" />
        </mxCell>
        <mxCell id="CqY-KDAt6uPlR234NN6K-412" value="specter allowed:" style="text;html=1;align=center;verticalAlign=middle;resizable=0;points=[];autosize=1;strokeColor=none;fillColor=none;fontSize=10;" vertex="1" parent="CqY-KDAt6uPlR234NN6K-380">
          <mxGeometry x="213" y="241" width="100" height="30" as="geometry" />
        </mxCell>
        <mxCell id="CqY-KDAt6uPlR234NN6K-414" value="Voice chat allowed:" style="text;html=1;align=center;verticalAlign=middle;resizable=0;points=[];autosize=1;strokeColor=none;fillColor=none;fontSize=10;" vertex="1" parent="CqY-KDAt6uPlR234NN6K-380">
          <mxGeometry x="212" y="269" width="110" height="30" as="geometry" />
        </mxCell>
        <mxCell id="CqY-KDAt6uPlR234NN6K-415" value="" style="verticalLabelPosition=bottom;verticalAlign=top;html=1;shadow=0;dashed=0;strokeWidth=1;shape=mxgraph.ios.iCheckIcon;fillColor=#e8878E;fillColor2=#BD1421;strokeColor=#ffffff;sketch=0;" vertex="1" parent="CqY-KDAt6uPlR234NN6K-380">
          <mxGeometry x="315" y="277" width="15" height="15" as="geometry" />
        </mxCell>
        <mxCell id="CqY-KDAt6uPlR234NN6K-416" value="Text chat allowed:" style="text;html=1;align=center;verticalAlign=middle;resizable=0;points=[];autosize=1;strokeColor=none;fillColor=none;fontSize=10;" vertex="1" parent="CqY-KDAt6uPlR234NN6K-380">
          <mxGeometry x="218.2" y="298" width="100" height="30" as="geometry" />
        </mxCell>
        <mxCell id="CqY-KDAt6uPlR234NN6K-419" value="Game Mode:" style="text;html=1;align=center;verticalAlign=middle;resizable=0;points=[];autosize=1;strokeColor=none;fillColor=none;fontSize=10;" vertex="1" parent="CqY-KDAt6uPlR234NN6K-380">
          <mxGeometry x="217" y="157" width="80" height="30" as="geometry" />
        </mxCell>
        <mxCell id="CqY-KDAt6uPlR234NN6K-421" value="" style="shape=image;html=1;verticalAlign=top;verticalLabelPosition=bottom;labelBackgroundColor=#ffffff;imageAspect=0;aspect=fixed;image=https://cdn0.iconfinder.com/data/icons/pokemon-go-vol-2/135/_snorlax-128.png" vertex="1" parent="CqY-KDAt6uPlR234NN6K-380">
          <mxGeometry x="201.79" y="160" width="25" height="25" as="geometry" />
        </mxCell>
        <mxCell id="CqY-KDAt6uPlR234NN6K-424" value="Mench" style="text;html=1;align=center;verticalAlign=middle;resizable=0;points=[];autosize=1;strokeColor=none;fillColor=none;fontSize=10;" vertex="1" parent="CqY-KDAt6uPlR234NN6K-380">
          <mxGeometry x="279.28999999999996" y="157.5" width="50" height="30" as="geometry" />
        </mxCell>
        <mxCell id="CqY-KDAt6uPlR234NN6K-438" value="" style="dashed=0;labelPosition=right;align=left;shape=mxgraph.gmdl.checkbox;strokeColor=#666666;fillColor=none;strokeWidth=2;aspect=fixed;sketch=0;html=1;" vertex="1" parent="CqY-KDAt6uPlR234NN6K-380">
          <mxGeometry x="313.29" y="305" width="16" height="16" as="geometry" />
        </mxCell>
        <mxCell id="CqY-KDAt6uPlR234NN6K-439" value="" style="verticalLabelPosition=bottom;verticalAlign=top;html=1;shadow=0;dashed=0;strokeWidth=1;shape=mxgraph.ios.iCheckIcon;fillColor=#e8878E;fillColor2=#BD1421;strokeColor=#ffffff;sketch=0;" vertex="1" parent="CqY-KDAt6uPlR234NN6K-380">
          <mxGeometry x="313.28999999999996" y="305" width="15" height="15" as="geometry" />
        </mxCell>
        <mxCell id="CqY-KDAt6uPlR234NN6K-440" value="" style="dashed=0;labelPosition=right;align=left;shape=mxgraph.gmdl.checkbox;strokeColor=#666666;fillColor=none;strokeWidth=2;aspect=fixed;sketch=0;html=1;" vertex="1" parent="CqY-KDAt6uPlR234NN6K-380">
          <mxGeometry x="314" y="276.5" width="16" height="16" as="geometry" />
        </mxCell>
        <mxCell id="CqY-KDAt6uPlR234NN6K-442" value="" style="dashed=0;labelPosition=right;align=left;shape=mxgraph.gmdl.checkbox;strokeColor=#666666;fillColor=none;strokeWidth=2;aspect=fixed;sketch=0;html=1;" vertex="1" parent="CqY-KDAt6uPlR234NN6K-380">
          <mxGeometry x="311" y="249.5" width="16" height="16" as="geometry" />
        </mxCell>
        <mxCell id="CqY-KDAt6uPlR234NN6K-443" value="&lt;font style=&quot;font-size: 10px;&quot;&gt;cancel&lt;/font&gt;" style="rounded=0;whiteSpace=wrap;html=1;" vertex="1" parent="CqY-KDAt6uPlR234NN6K-380">
          <mxGeometry x="234" y="340" width="70" height="20" as="geometry" />
        </mxCell>
        <mxCell id="CqY-KDAt6uPlR234NN6K-444" value="submit" style="rounded=0;whiteSpace=wrap;html=1;fillColor=#d5e8d4;strokeColor=#82b366;" vertex="1" parent="CqY-KDAt6uPlR234NN6K-380">
          <mxGeometry x="329.28999999999996" y="340" width="70" height="20" as="geometry" />
        </mxCell>
        <mxCell id="CqY-KDAt6uPlR234NN6K-499" value="you cant not create lobby&lt;br&gt;your lobby creation is limitted" style="text;html=1;align=center;verticalAlign=middle;resizable=0;points=[];autosize=1;strokeColor=none;fillColor=none;fontSize=10;fontColor=#FF0F0F;" vertex="1" parent="CqY-KDAt6uPlR234NN6K-380">
          <mxGeometry x="467" y="36" width="150" height="40" as="geometry" />
        </mxCell>
        <mxCell id="CqY-KDAt6uPlR234NN6K-384" value="create lobby" style="edgeStyle=orthogonalEdgeStyle;rounded=0;orthogonalLoop=1;jettySize=auto;html=1;fillColor=#dae8fc;strokeColor=#6c8ebf;" edge="1" parent="1" source="CqY-KDAt6uPlR234NN6K-258" target="CqY-KDAt6uPlR234NN6K-380">
          <mxGeometry x="0.1032" relative="1" as="geometry">
            <Array as="points">
              <mxPoint x="1620" y="618" />
              <mxPoint x="1620" y="1110" />
              <mxPoint x="1268" y="1110" />
            </Array>
            <mxPoint as="offset" />
          </mxGeometry>
        </mxCell>
        <mxCell id="CqY-KDAt6uPlR234NN6K-401" value="" style="endArrow=classic;html=1;rounded=0;" edge="1" parent="1">
          <mxGeometry width="50" height="50" relative="1" as="geometry">
            <mxPoint x="1266" y="1366" as="sourcePoint" />
            <mxPoint x="1266" y="1356" as="targetPoint" />
          </mxGeometry>
        </mxCell>
        <mxCell id="CqY-KDAt6uPlR234NN6K-426" value="" style="endArrow=classic;html=1;rounded=0;" edge="1" parent="1">
          <mxGeometry width="50" height="50" relative="1" as="geometry">
            <mxPoint x="1301" y="1325" as="sourcePoint" />
            <mxPoint x="1301" y="1335" as="targetPoint" />
          </mxGeometry>
        </mxCell>
        <mxCell id="CqY-KDAt6uPlR234NN6K-427" value="" style="endArrow=classic;html=1;rounded=0;" edge="1" parent="1">
          <mxGeometry width="50" height="50" relative="1" as="geometry">
            <mxPoint x="1301" y="1320" as="sourcePoint" />
            <mxPoint x="1301" y="1310" as="targetPoint" />
          </mxGeometry>
        </mxCell>
        <mxCell id="CqY-KDAt6uPlR234NN6K-445" value="cancel" style="edgeStyle=orthogonalEdgeStyle;rounded=0;orthogonalLoop=1;jettySize=auto;html=1;fillColor=#e1d5e7;strokeColor=#9673a6;" edge="1" parent="1" source="CqY-KDAt6uPlR234NN6K-443" target="CqY-KDAt6uPlR234NN6K-254">
          <mxGeometry relative="1" as="geometry">
            <Array as="points">
              <mxPoint x="880" y="1500" />
              <mxPoint x="880" y="1000" />
            </Array>
          </mxGeometry>
        </mxCell>
        <mxCell id="CqY-KDAt6uPlR234NN6K-484" value="failed/longwait" style="edgeStyle=orthogonalEdgeStyle;rounded=0;orthogonalLoop=1;jettySize=auto;html=1;fillColor=#dae8fc;strokeColor=#6c8ebf;" edge="1" parent="1" source="CqY-KDAt6uPlR234NN6K-472" target="CqY-KDAt6uPlR234NN6K-480">
          <mxGeometry relative="1" as="geometry" />
        </mxCell>
        <mxCell id="CqY-KDAt6uPlR234NN6K-485" value="responsed error" style="edgeStyle=orthogonalEdgeStyle;rounded=0;orthogonalLoop=1;jettySize=auto;html=1;fillColor=#e1d5e7;strokeColor=#9673a6;" edge="1" parent="1" source="CqY-KDAt6uPlR234NN6K-472" target="CqY-KDAt6uPlR234NN6K-380">
          <mxGeometry relative="1" as="geometry">
            <Array as="points">
              <mxPoint x="1700" y="1250" />
              <mxPoint x="1700" y="1250" />
            </Array>
          </mxGeometry>
        </mxCell>
        <mxCell id="CqY-KDAt6uPlR234NN6K-490" value="sucess" style="edgeStyle=orthogonalEdgeStyle;rounded=0;orthogonalLoop=1;jettySize=auto;html=1;fillColor=#dae8fc;strokeColor=#6c8ebf;" edge="1" parent="1" source="CqY-KDAt6uPlR234NN6K-472" target="CqY-KDAt6uPlR234NN6K-488">
          <mxGeometry relative="1" as="geometry" />
        </mxCell>
        <mxCell id="CqY-KDAt6uPlR234NN6K-472" value="main-client: creating lobby wait" style="swimlane;whiteSpace=wrap;html=1;" vertex="1" parent="1">
          <mxGeometry x="1820" y="1160" width="630" height="350" as="geometry">
            <mxRectangle x="110" y="30" width="180" height="30" as="alternateBounds" />
          </mxGeometry>
        </mxCell>
        <mxCell id="CqY-KDAt6uPlR234NN6K-473" value="creating lobby&lt;br&gt;please wait..." style="text;html=1;align=center;verticalAlign=middle;resizable=0;points=[];autosize=1;strokeColor=none;fillColor=none;fontSize=27;" vertex="1" parent="CqY-KDAt6uPlR234NN6K-472">
          <mxGeometry x="220" y="133" width="190" height="80" as="geometry" />
        </mxCell>
        <mxCell id="CqY-KDAt6uPlR234NN6K-477" value="responsed error" style="edgeStyle=orthogonalEdgeStyle;rounded=0;orthogonalLoop=1;jettySize=auto;html=1;entryX=0.998;entryY=0.039;entryDx=0;entryDy=0;entryPerimeter=0;fillColor=#e1d5e7;strokeColor=#9673a6;" edge="1" parent="1" source="CqY-KDAt6uPlR234NN6K-71" target="CqY-KDAt6uPlR234NN6K-34">
          <mxGeometry relative="1" as="geometry" />
        </mxCell>
        <mxCell id="CqY-KDAt6uPlR234NN6K-478" value="data" style="edgeStyle=orthogonalEdgeStyle;rounded=0;orthogonalLoop=1;jettySize=auto;html=1;fillColor=#dae8fc;strokeColor=#6c8ebf;strokeWidth=1;" edge="1" parent="1" source="CqY-KDAt6uPlR234NN6K-444" target="CqY-KDAt6uPlR234NN6K-472">
          <mxGeometry relative="1" as="geometry">
            <Array as="points">
              <mxPoint x="1620" y="1500" />
              <mxPoint x="1620" y="1335" />
            </Array>
          </mxGeometry>
        </mxCell>
        <mxCell id="CqY-KDAt6uPlR234NN6K-480" value="main-client: create lobby dialog failed" style="swimlane;whiteSpace=wrap;html=1;" vertex="1" parent="1">
          <mxGeometry x="2620" y="1150" width="630" height="350" as="geometry">
            <mxRectangle x="110" y="30" width="180" height="30" as="alternateBounds" />
          </mxGeometry>
        </mxCell>
        <mxCell id="CqY-KDAt6uPlR234NN6K-481" value="1.Connection problem&lt;br&gt;2.Server did not response for a while" style="text;html=1;align=center;verticalAlign=middle;resizable=0;points=[];autosize=1;strokeColor=none;fillColor=none;fontSize=27;" vertex="1" parent="CqY-KDAt6uPlR234NN6K-480">
          <mxGeometry x="85" y="100" width="460" height="80" as="geometry" />
        </mxCell>
        <mxCell id="CqY-KDAt6uPlR234NN6K-482" value="retry" style="rounded=0;whiteSpace=wrap;html=1;" vertex="1" parent="CqY-KDAt6uPlR234NN6K-480">
          <mxGeometry x="348" y="220" width="115" height="30" as="geometry" />
        </mxCell>
        <mxCell id="CqY-KDAt6uPlR234NN6K-483" value="cancel" style="rounded=0;whiteSpace=wrap;html=1;" vertex="1" parent="CqY-KDAt6uPlR234NN6K-480">
          <mxGeometry x="168" y="220" width="115" height="30" as="geometry" />
        </mxCell>
        <mxCell id="CqY-KDAt6uPlR234NN6K-486" value="retry" style="edgeStyle=orthogonalEdgeStyle;rounded=0;orthogonalLoop=1;jettySize=auto;html=1;fillColor=#e1d5e7;strokeColor=#9673a6;" edge="1" parent="1" source="CqY-KDAt6uPlR234NN6K-482" target="CqY-KDAt6uPlR234NN6K-472">
          <mxGeometry relative="1" as="geometry">
            <Array as="points">
              <mxPoint x="3025" y="1570" />
              <mxPoint x="2500" y="1570" />
              <mxPoint x="2500" y="1385" />
            </Array>
          </mxGeometry>
        </mxCell>
        <mxCell id="CqY-KDAt6uPlR234NN6K-487" value="cancel" style="edgeStyle=orthogonalEdgeStyle;rounded=0;orthogonalLoop=1;jettySize=auto;html=1;fillColor=#e1d5e7;strokeColor=#9673a6;" edge="1" parent="1" source="CqY-KDAt6uPlR234NN6K-483" target="CqY-KDAt6uPlR234NN6K-254">
          <mxGeometry relative="1" as="geometry">
            <Array as="points">
              <mxPoint x="2845" y="1430" />
              <mxPoint x="2590" y="1430" />
              <mxPoint x="2590" y="740" />
            </Array>
          </mxGeometry>
        </mxCell>
        <mxCell id="CqY-KDAt6uPlR234NN6K-492" value="do action" style="edgeStyle=orthogonalEdgeStyle;rounded=0;orthogonalLoop=1;jettySize=auto;html=1;" edge="1" parent="1" source="CqY-KDAt6uPlR234NN6K-488" target="CqY-KDAt6uPlR234NN6K-491">
          <mxGeometry relative="1" as="geometry" />
        </mxCell>
        <mxCell id="CqY-KDAt6uPlR234NN6K-488" value="main-client: join lobby wait" style="swimlane;whiteSpace=wrap;html=1;" vertex="1" parent="1">
          <mxGeometry x="1820" y="1570" width="630" height="350" as="geometry">
            <mxRectangle x="110" y="30" width="180" height="30" as="alternateBounds" />
          </mxGeometry>
        </mxCell>
        <mxCell id="CqY-KDAt6uPlR234NN6K-489" value="join lobby&lt;br&gt;please wait.." style="text;html=1;align=center;verticalAlign=middle;resizable=0;points=[];autosize=1;strokeColor=none;fillColor=none;fontSize=27;" vertex="1" parent="CqY-KDAt6uPlR234NN6K-488">
          <mxGeometry x="230" y="133" width="170" height="80" as="geometry" />
        </mxCell>
        <mxCell id="CqY-KDAt6uPlR234NN6K-491" value="open game-client.exe &lt;br&gt;(ip,port,identity)" style="rounded=0;whiteSpace=wrap;html=1;" vertex="1" parent="1">
          <mxGeometry x="2040" y="1990" width="200" height="100" as="geometry" />
        </mxCell>
        <mxCell id="CqY-KDAt6uPlR234NN6K-496" value="success" style="edgeStyle=orthogonalEdgeStyle;rounded=0;orthogonalLoop=1;jettySize=auto;html=1;fillColor=#dae8fc;strokeColor=#6c8ebf;" edge="1" parent="1" source="CqY-KDAt6uPlR234NN6K-493" target="CqY-KDAt6uPlR234NN6K-488">
          <mxGeometry relative="1" as="geometry">
            <Array as="points">
              <mxPoint x="570" y="1630" />
            </Array>
          </mxGeometry>
        </mxCell>
        <mxCell id="CqY-KDAt6uPlR234NN6K-497" value="response error (not found, lobby is full)" style="edgeStyle=orthogonalEdgeStyle;rounded=0;orthogonalLoop=1;jettySize=auto;html=1;fillColor=#e1d5e7;strokeColor=#9673a6;" edge="1" parent="1" source="CqY-KDAt6uPlR234NN6K-493" target="CqY-KDAt6uPlR234NN6K-254">
          <mxGeometry relative="1" as="geometry">
            <Array as="points">
              <mxPoint x="510" y="960" />
              <mxPoint x="910" y="960" />
              <mxPoint x="910" y="795" />
            </Array>
          </mxGeometry>
        </mxCell>
        <mxCell id="CqY-KDAt6uPlR234NN6K-493" value="main-client: receive lobby info wait" style="swimlane;whiteSpace=wrap;html=1;" vertex="1" parent="1">
          <mxGeometry x="140" y="1160" width="630" height="350" as="geometry">
            <mxRectangle x="110" y="30" width="180" height="30" as="alternateBounds" />
          </mxGeometry>
        </mxCell>
        <mxCell id="CqY-KDAt6uPlR234NN6K-494" value="receiving lobby info&lt;br&gt;please wait..." style="text;html=1;align=center;verticalAlign=middle;resizable=0;points=[];autosize=1;strokeColor=none;fillColor=none;fontSize=27;" vertex="1" parent="CqY-KDAt6uPlR234NN6K-493">
          <mxGeometry x="190" y="133" width="250" height="80" as="geometry" />
        </mxCell>
        <mxCell id="CqY-KDAt6uPlR234NN6K-495" value="get lobby info" style="edgeStyle=orthogonalEdgeStyle;rounded=0;orthogonalLoop=1;jettySize=auto;html=1;fillColor=#dae8fc;strokeColor=#6c8ebf;" edge="1" parent="1" source="CqY-KDAt6uPlR234NN6K-259" target="CqY-KDAt6uPlR234NN6K-493">
          <mxGeometry relative="1" as="geometry">
            <Array as="points">
              <mxPoint x="1160" y="640" />
              <mxPoint x="860" y="640" />
              <mxPoint x="860" y="890" />
              <mxPoint x="455" y="890" />
            </Array>
          </mxGeometry>
        </mxCell>
        <mxCell id="CqY-KDAt6uPlR234NN6K-505" value="response: error / result" style="edgeStyle=orthogonalEdgeStyle;rounded=0;orthogonalLoop=1;jettySize=auto;html=1;fillColor=#e1d5e7;strokeColor=#9673a6;" edge="1" parent="1" source="CqY-KDAt6uPlR234NN6K-502" target="CqY-KDAt6uPlR234NN6K-254">
          <mxGeometry relative="1" as="geometry">
            <Array as="points">
              <mxPoint x="1710" y="880" />
              <mxPoint x="1710" y="795" />
            </Array>
          </mxGeometry>
        </mxCell>
        <mxCell id="CqY-KDAt6uPlR234NN6K-502" value="main-client: get lobby list wait" style="swimlane;whiteSpace=wrap;html=1;" vertex="1" parent="1">
          <mxGeometry x="1830" y="770" width="630" height="350" as="geometry">
            <mxRectangle x="110" y="30" width="180" height="30" as="alternateBounds" />
          </mxGeometry>
        </mxCell>
        <mxCell id="CqY-KDAt6uPlR234NN6K-503" value="loading lobby list&lt;br&gt;please wait..." style="text;html=1;align=center;verticalAlign=middle;resizable=0;points=[];autosize=1;strokeColor=none;fillColor=none;fontSize=27;" vertex="1" parent="CqY-KDAt6uPlR234NN6K-502">
          <mxGeometry x="205" y="133" width="220" height="80" as="geometry" />
        </mxCell>
        <mxCell id="CqY-KDAt6uPlR234NN6K-504" value="get lobby list" style="edgeStyle=orthogonalEdgeStyle;rounded=0;orthogonalLoop=1;jettySize=auto;html=1;fillColor=#dae8fc;strokeColor=#6c8ebf;strokeWidth=4;" edge="1" parent="1" source="CqY-KDAt6uPlR234NN6K-320" target="CqY-KDAt6uPlR234NN6K-502">
          <mxGeometry relative="1" as="geometry">
            <Array as="points">
              <mxPoint x="1557" y="680" />
              <mxPoint x="1790" y="680" />
              <mxPoint x="1790" y="840" />
            </Array>
          </mxGeometry>
        </mxCell>
        <mxCell id="CqY-KDAt6uPlR234NN6K-507" value="main-client: logout" style="swimlane;whiteSpace=wrap;html=1;" vertex="1" parent="1">
          <mxGeometry x="2620" y="280" width="630" height="350" as="geometry">
            <mxRectangle x="110" y="30" width="180" height="30" as="alternateBounds" />
          </mxGeometry>
        </mxCell>
        <mxCell id="CqY-KDAt6uPlR234NN6K-508" value="are you sure to logout&lt;br&gt;from account %username%" style="text;html=1;align=center;verticalAlign=middle;resizable=0;points=[];autosize=1;strokeColor=none;fillColor=none;fontSize=27;" vertex="1" parent="CqY-KDAt6uPlR234NN6K-507">
          <mxGeometry x="135" y="100" width="360" height="80" as="geometry" />
        </mxCell>
        <mxCell id="CqY-KDAt6uPlR234NN6K-509" value="yes" style="rounded=0;whiteSpace=wrap;html=1;" vertex="1" parent="CqY-KDAt6uPlR234NN6K-507">
          <mxGeometry x="348" y="220" width="115" height="30" as="geometry" />
        </mxCell>
        <mxCell id="CqY-KDAt6uPlR234NN6K-510" value="cancel" style="rounded=0;whiteSpace=wrap;html=1;" vertex="1" parent="CqY-KDAt6uPlR234NN6K-507">
          <mxGeometry x="168" y="220" width="115" height="30" as="geometry" />
        </mxCell>
        <mxCell id="CqY-KDAt6uPlR234NN6K-511" value="cancel" style="edgeStyle=orthogonalEdgeStyle;rounded=0;orthogonalLoop=1;jettySize=auto;html=1;fillColor=#e1d5e7;strokeColor=#9673a6;strokeWidth=3;" edge="1" parent="1" source="CqY-KDAt6uPlR234NN6K-510" target="CqY-KDAt6uPlR234NN6K-254">
          <mxGeometry relative="1" as="geometry">
            <Array as="points">
              <mxPoint x="2846" y="650" />
            </Array>
          </mxGeometry>
        </mxCell>
        <mxCell id="CqY-KDAt6uPlR234NN6K-513" value="logout" style="edgeStyle=orthogonalEdgeStyle;rounded=0;orthogonalLoop=1;jettySize=auto;html=1;strokeWidth=3;fillColor=#dae8fc;strokeColor=#6c8ebf;" edge="1" parent="1" source="CqY-KDAt6uPlR234NN6K-321" target="CqY-KDAt6uPlR234NN6K-507">
          <mxGeometry relative="1" as="geometry">
            <Array as="points">
              <mxPoint x="1410" y="540" />
              <mxPoint x="1810" y="540" />
              <mxPoint x="1810" y="200" />
              <mxPoint x="2935" y="200" />
            </Array>
          </mxGeometry>
        </mxCell>
        <mxCell id="CqY-KDAt6uPlR234NN6K-514" value="login" style="edgeStyle=orthogonalEdgeStyle;rounded=0;orthogonalLoop=1;jettySize=auto;html=1;fillColor=#e1d5e7;strokeColor=#9673a6;" edge="1" parent="1" source="CqY-KDAt6uPlR234NN6K-509" target="CqY-KDAt6uPlR234NN6K-1">
          <mxGeometry relative="1" as="geometry">
            <Array as="points">
              <mxPoint x="3290" y="515" />
              <mxPoint x="3290" y="60" />
            </Array>
          </mxGeometry>
        </mxCell>
        <mxCell id="CqY-KDAt6uPlR234NN6K-515" value="main-client: notification dialog" style="swimlane;whiteSpace=wrap;html=1;" vertex="1" parent="1">
          <mxGeometry x="2690" y="770" width="540" height="260" as="geometry">
            <mxRectangle x="110" y="30" width="180" height="30" as="alternateBounds" />
          </mxGeometry>
        </mxCell>
        <mxCell id="CqY-KDAt6uPlR234NN6K-516" value="example:&lt;br&gt;could not load lobby." style="text;html=1;align=center;verticalAlign=middle;resizable=0;points=[];autosize=1;strokeColor=none;fillColor=none;fontSize=27;" vertex="1" parent="CqY-KDAt6uPlR234NN6K-515">
          <mxGeometry x="130" y="70" width="270" height="80" as="geometry" />
        </mxCell>
        <mxCell id="CqY-KDAt6uPlR234NN6K-518" style="edgeStyle=orthogonalEdgeStyle;rounded=0;orthogonalLoop=1;jettySize=auto;html=1;" edge="1" parent="CqY-KDAt6uPlR234NN6K-515" source="CqY-KDAt6uPlR234NN6K-517">
          <mxGeometry relative="1" as="geometry">
            <mxPoint x="385" y="207" as="targetPoint" />
          </mxGeometry>
        </mxCell>
        <mxCell id="CqY-KDAt6uPlR234NN6K-519" value="this dialog will invise" style="edgeLabel;html=1;align=center;verticalAlign=middle;resizable=0;points=[];" vertex="1" connectable="0" parent="CqY-KDAt6uPlR234NN6K-518">
          <mxGeometry x="1" y="-6" relative="1" as="geometry">
            <mxPoint x="55" y="-7" as="offset" />
          </mxGeometry>
        </mxCell>
        <mxCell id="CqY-KDAt6uPlR234NN6K-517" value="Ok" style="rounded=0;whiteSpace=wrap;html=1;" vertex="1" parent="CqY-KDAt6uPlR234NN6K-515">
          <mxGeometry x="178" y="180" width="115" height="30" as="geometry" />
        </mxCell>
      </root>
    </mxGraphModel>
  </diagram>
</mxfile>
